<?xml version="1.0" encoding="UTF-8"?>
<svg id="_レイヤー_1" data-name="レイヤー 1" xmlns="http://www.w3.org/2000/svg" viewBox="0 0 245 236">
  <defs>
    <style>
      .cls-1 {
        fill: #fff;
      }

      .cls-2 {
        fill: #f6851f;
      }

      .cls-3 {
        fill: #8460a9;
      }

      .cls-4 {
        stroke: #c2b0d4;
      }

      .cls-4, .cls-5 {
        fill: none;
        stroke-width: 2px;
      }

      .cls-5 {
        stroke: #fbc28f;
      }
    </style>
  </defs>
  <g>
    <path class="cls-5" d="m111.64,47.04c7.14-.66,12.44-.02,20.56.87.26.03.49-.15.53-.41,0-.01,0-.02,0-.03l2.04-37.45c.02-.27-.19-.5-.47-.52-.01,0-.02,0-.03,0h-27.23c-.35,0-.64.28-.65.63,0,.03,0,.06,0,.09l4.58,36.29c.05.33.34.56.66.53" vector-effect="non-scaling-stroke"/>
    <path class="cls-5" d="m142.68,50.72c6.07,2.07,11.84,4.59,17.32,7.58.28.15.63.06.8-.2l22.43-35.09c.12-.18.07-.43-.11-.55-.03-.02-.06-.03-.1-.05l-28.72-9.65c-.38-.13-.79.08-.91.46,0,0,0,.01,0,.02l-11.11,36.69c-.1.33.08.68.41.79" vector-effect="non-scaling-stroke"/>
    <path class="cls-5" d="m96.4,49.26c.08.22.32.35.55.3l7-1.47c.26-.06.42-.31.37-.57,0,0,0-.02,0-.03l-8.76-30.89c-.07-.25-.34-.4-.59-.33-.02,0-.04.01-.06.02l-8.52,3.54c-.23.1-.35.36-.27.6l10.29,28.83" vector-effect="non-scaling-stroke"/>
    <path class="cls-4" d="m23.34,26.63c-5.99,9.45-1.1,21.2,5.42,28.96.14.17.38.19.55.05.02-.02.05-.04.07-.07l22.62-30.52c.18-.24.14-.58-.09-.78-8.79-7.41-21.74-8.42-28.57,2.36" vector-effect="non-scaling-stroke"/>
    <path class="cls-5" d="m45.44,51.81c7.29,3.94,14.6,7.92,21.92,11.95.26.14.58.12.82-.06,6.23-4.81,13.04-8.61,20.44-11.41.31-.12.47-.48.35-.79-.02-.05-.05-.1-.08-.14l-22.94-31.29c-.15-.2-.43-.24-.63-.09-.03.02-.06.05-.08.08l-22.74,29.23c-.19.25-.15.61.1.8,0,0,0,0,0,0,.55.43,1.5,1,2.84,1.72" vector-effect="non-scaling-stroke"/>
    <path class="cls-4" d="m194.99,33c5.45,4.81,10.94,9.6,16.48,14.36.17.14.43.12.57-.05.02-.02.03-.05.05-.07,4.22-8.2,5.14-21.31-6.04-24.72-5.94-1.82-11.67,1.07-15.52,5.62-.19.23-.2.56-.02.8,1.27,1.64,3.34,3.05,4.48,4.06" vector-effect="non-scaling-stroke"/>
    <path class="cls-5" d="m179.16,73.15c7.49-7.45,14.85-15.23,21.99-23,.2-.21.19-.54-.02-.74l-11.35-11.21c-.21-.21-.55-.21-.76,0-.02.02-.03.03-.05.05l-19.14,26.18c-.17.24-.14.57.08.76l8.52,7.96c.21.2.53.19.73-.01" vector-effect="non-scaling-stroke"/>
    <path class="cls-5" d="m185.28,82.36c3.11,4.7,5.51,9.74,7.22,15.12.11.32.45.51.77.42l44.16-11.99c.24-.07.38-.31.31-.55,0-.03-.02-.06-.03-.09l-18.26-34.7c-.12-.22-.4-.31-.62-.19-.04.02-.07.04-.1.07l-33.32,30.86c-.29.27-.35.72-.13,1.05" vector-effect="non-scaling-stroke"/>
    <path class="cls-5" d="m61.37,69.17c-6.02-3.5-11.94-7.16-18.04-10.55-.24-.14-.55-.05-.69.19l-2.96,5.11c-.18.32-.07.72.24.89,0,0,0,0,0,0l17.01,9.34c.32.18.71.11.95-.16l3.6-4.11c.17-.19.15-.49-.04-.66-.02-.02-.05-.04-.08-.06" vector-effect="non-scaling-stroke"/>
    <path class="cls-5" d="m52.14,82.75l-33.67-18.22c-.18-.09-.4-.02-.5.16-.01.03-.02.05-.03.08l-6.08,25.78c-.06.23.09.46.32.52,0,0,.02,0,.03,0l34.4,5.78c.26.04.52-.12.59-.38,1.29-4.76,2.96-9.27,5-13.54.03-.07,0-.15-.06-.19" vector-effect="non-scaling-stroke"/>
    <path class="cls-4" d="m163.31,88.19c-2.51-1.66-4.28.2-5.03,2.64-1.62,5.25-7.55,19.19-14.22,11.1-2.74-3.31-3.84-7.16-3.29-11.54.35-2.81.25-5.05-2.85-5.6-1.26-.22-2.48.58-2.78,1.82-1.79,7.45-.45,13.77,4,18.98,14.81,17.28,28.7-14.41,24.17-17.4" vector-effect="non-scaling-stroke"/>
    <path class="cls-4" d="m88.52,106.02c-7.1,8.82-13.46-8.83-14.74-13.14-.1-.31-.29-.58-.55-.77-2.4-1.75-5.56.23-4.93,3.12,1.95,8.93,11.6,26.63,23.16,16.46,5.85-5.15,7.97-11.83,6.35-20.02-.88-4.46-6.62-2.93-6.1,1.09.69,5.34-.37,9.76-3.19,13.26" vector-effect="non-scaling-stroke"/>
    <path class="cls-5" d="m45.32,102.09c-7.44-1.27-14.86-2.81-22.31-4.22-.31-.06-.62.12-.72.41l-2.37,6.73c-.08.23.04.48.27.56.02,0,.05.01.07.02l24.03,4.53c.26.05.51-.12.56-.38,0-.01,0-.02,0-.03l.97-6.93c.04-.33-.18-.63-.51-.69" vector-effect="non-scaling-stroke"/>
    <path class="cls-5" d="m195.09,113.84c.01.17.16.3.33.29,0,0,0,0,.01,0l31.27-2.42c.16-.01.29-.15.29-.31l-.04-11.24c0-.17-.14-.31-.31-.31-.01,0-.03,0-.04,0l-32.02,4.63c-.16.03-.27.17-.26.33l.77,9.03" vector-effect="non-scaling-stroke"/>
    <path class="cls-4" d="m117.05,164.63c-2.86-.42-9.89-3.63-9,2.89.08.53.42.98.91,1.2,7.47,3.29,15,3.39,22.59.31,4.38-1.77,2.52-7.46-2.08-5.89-1.61.55-3.3,1-5.07,1.36-.23.04-.46-.11-.5-.34,0-.03,0-.05,0-.08l-.56-23.65c-.01-.3.09-.59.28-.82,5.93-7.27,11.21-15,15.83-23.21.09-.15.04-.34-.12-.43-.04-.03-.09-.04-.14-.04-13.02-.95-26.03-.37-39.02,1.73-.26.05-.43.29-.39.55,0,.01,0,.02,0,.03,2.57,9.85,8.19,17.44,16.88,22.77.29.18.48.5.49.84l.47,22.28c0,.28-.21.5-.48.51-.03,0-.06,0-.09,0" vector-effect="non-scaling-stroke"/>
    <path class="cls-5" d="m45,137.54c-.88-6.13-1.17-12.28-.88-18.47.02-.3-.21-.55-.51-.57-.01,0-.02,0-.03,0H6.67c-.27,0-.49.21-.49.48,0,.04,0,.08.01.12l7.5,30.93c.07.32.39.51.71.44.03,0,.06-.02.09-.03l29.96-11.96c.38-.15.6-.54.55-.94" vector-effect="non-scaling-stroke"/>
    <path class="cls-5" d="m188.21,146.44l31.55,17.36c.3.16.67.05.82-.24.02-.05.04-.09.06-.14l10.06-40.55c.07-.27-.1-.54-.37-.61-.04-.01-.08-.01-.12-.01h-35.01c-.33,0-.61.25-.65.57-1.08,7.95-3.28,15.56-6.6,22.85-.13.28-.01.62.26.77" vector-effect="non-scaling-stroke"/>
    <path class="cls-4" d="m91.55,139.31c-.26-.77-1.09-1.18-1.86-.92l-19.28,6.49c-.77.26-1.18,1.09-.92,1.86l.2.59c.26.77,1.09,1.18,1.86.92l19.28-6.49c.77-.26,1.18-1.09.92-1.86l-.2-.59" vector-effect="non-scaling-stroke"/>
    <path class="cls-4" d="m172.26,146.75c.26-.78-.15-1.63-.93-1.89l-19.23-6.51c-.78-.26-1.63.15-1.89.93l-.19.55c-.26.78.15,1.63.93,1.89l19.23,6.51c.78.26,1.63-.15,1.89-.93l.19-.55" vector-effect="non-scaling-stroke"/>
    <path class="cls-4" d="m95.13,146.63c-.43-.7-1.34-.93-2.05-.51l-18.15,10.95c-.7.43-.93,1.34-.51,2.05l.32.53c.43.7,1.34.93,2.05.51l18.15-10.95c.7-.43.93-1.34.51-2.05l-.32-.53" vector-effect="non-scaling-stroke"/>
    <path class="cls-4" d="m167.29,159.3c.48-.8.23-1.84-.57-2.32l-17.91-10.85c-.8-.48-1.84-.23-2.32.57l-.13.22c-.48.8-.23,1.84.57,2.32l17.91,10.85c.8.48,1.84.23,2.32-.57l.13-.22" vector-effect="non-scaling-stroke"/>
    <path class="cls-5" d="m30.52,169.59c.09.15.28.2.44.12l20.26-11.58c.14-.08.2-.26.14-.41l-3.98-9.53c-.07-.17-.27-.24-.43-.17,0,0,0,0,0,0l-22.42,10.55c-.17.08-.24.27-.16.44,0,0,0,.01.01.02l6.15,10.56" vector-effect="non-scaling-stroke"/>
    <path class="cls-4" d="m98.91,155.59c.53-.79.31-1.86-.48-2.39h0l-.05-.03c-.79-.53-1.86-.31-2.39.48h0l-10.24,15.36c-.53.79-.31,1.86.48,2.39h0l.05.03c.79.53,1.86.31,2.39-.48l10.24-15.36" vector-effect="non-scaling-stroke"/>
    <path class="cls-4" d="m145.83,153.64c-.52-.79-1.59-1-2.37-.47,0,0,0,0,0,0l-.08.06c-.79.52-1,1.59-.47,2.37l10.23,15.34c.52.79,1.59,1,2.37.47,0,0,0,0,0,0l.08-.06c.79-.52,1-1.59.47-2.37l-10.23-15.34" vector-effect="non-scaling-stroke"/>
    <path class="cls-5" d="m218.12,179.52l-36.31-21.72c-.24-.14-.54-.07-.69.16-2.64,4.07-5.58,7.94-8.81,11.63-.16.19-.18.46-.03.66l22,29.12c.12.16.35.2.52.08,0,0,.02-.01.02-.02l23.35-19.26c.17-.14.19-.39.05-.56-.03-.03-.06-.06-.1-.09" vector-effect="non-scaling-stroke"/>
    <path class="cls-5" d="m33.3,185.95c.07.16.26.24.42.17.02,0,.03-.02.05-.03l25.04-16.47c.15-.1.18-.3.08-.44,0,0,0,0,0,0l-3.9-5.34c-.1-.14-.29-.17-.43-.08l-24.1,15.34c-.13.09-.18.26-.12.4l2.96,6.46" vector-effect="non-scaling-stroke"/>
    <path class="cls-5" d="m85.93,189.24c-6.74-2.85-12.9-6.64-18.48-11.37-.23-.2-.56-.21-.81-.03l-22.05,16.51c-.23.18-.27.5-.09.73.01.01.02.03.03.04l21.21,22.35c.1.1.26.11.37,0,.01-.01.02-.02.03-.04l19.99-27.49c.15-.21.11-.5-.1-.66-.03-.02-.06-.04-.1-.05" vector-effect="non-scaling-stroke"/>
    <path class="cls-5" d="m165.62,206.25c.09.22.34.33.56.24,0,0,.01,0,.02,0l8.57-4c.22-.1.31-.35.21-.57,0-.01-.01-.03-.02-.04l-12.62-21.8c-.12-.2-.38-.27-.59-.15,0,0-.01,0-.02.01l-4.58,3.2c-.16.11-.23.32-.16.5l8.63,22.62" vector-effect="non-scaling-stroke"/>
    <path class="cls-4" d="m112.97,209.89c.14-.09.32-.06.43.06l6.07,6.54c.13.14.34.15.48.02,0,0,0,0,0,0l5.6-5.37c.09-.09.23-.11.35-.07l30.23,10.19c.18.06.37-.03.43-.21.02-.06.02-.13,0-.2l-8.67-31.15c-.05-.18-.23-.29-.42-.24-.03,0-.06.02-.09.04l-20.71,12.91c-.12.08-.28.07-.39-.02l-6.35-4.98c-.13-.1-.32-.09-.44.02l-5.38,4.97c-.1.09-.24.11-.36.06l-23.17-9.75c-.17-.07-.37,0-.44.18-.01.03-.02.07-.03.11l-2.84,32.76c-.02.19.12.35.31.37.08,0,.15-.01.21-.05l25.16-16.18" vector-effect="non-scaling-stroke"/>
  </g>
  <path class="cls-1" d="m0,0h245v236H0V0Zm111.64,47.04c7.14-.66,12.44-.02,20.56.87.26.03.49-.15.53-.41,0-.01,0-.02,0-.03l2.04-37.45c.02-.27-.19-.5-.47-.52-.01,0-.02,0-.03,0h-27.23c-.35,0-.64.28-.65.63,0,.03,0,.06,0,.09l4.58,36.29c.05.33.34.56.66.53Zm31.04,3.68c6.07,2.07,11.84,4.59,17.32,7.58.28.15.63.06.8-.2l22.43-35.09c.12-.18.07-.43-.11-.55-.03-.02-.06-.03-.1-.05l-28.72-9.65c-.38-.13-.79.08-.91.46,0,0,0,.01,0,.02l-11.11,36.69c-.1.33.08.68.41.79Zm-46.28-1.46c.08.22.32.35.55.3l7-1.47c.26-.06.42-.31.37-.57,0,0,0-.02,0-.03l-8.76-30.89c-.07-.25-.34-.4-.59-.33-.02,0-.04.01-.06.02l-8.52,3.54c-.23.1-.35.36-.27.6l10.29,28.83ZM23.34,26.63c-5.99,9.45-1.1,21.2,5.42,28.96.14.17.38.19.55.05.02-.02.05-.04.07-.07l22.62-30.52c.18-.24.14-.58-.09-.78-8.79-7.41-21.74-8.42-28.57,2.36Zm22.1,25.18c7.29,3.94,14.6,7.92,21.92,11.95.26.14.58.12.82-.06,6.23-4.81,13.04-8.61,20.44-11.41.31-.12.47-.48.35-.79-.02-.05-.05-.1-.08-.14l-22.94-31.29c-.15-.2-.43-.24-.63-.09-.03.02-.06.05-.08.08l-22.74,29.23c-.19.25-.15.61.1.8,0,0,0,0,0,0,.55.43,1.5,1,2.84,1.72Zm149.55-18.81c5.45,4.81,10.94,9.6,16.48,14.36.17.14.43.12.57-.05.02-.02.03-.05.05-.07,4.22-8.2,5.14-21.31-6.04-24.72-5.94-1.82-11.67,1.07-15.52,5.62-.19.23-.2.56-.02.8,1.27,1.64,3.34,3.05,4.48,4.06Zm-15.83,40.15c7.49-7.45,14.85-15.23,21.99-23,.2-.21.19-.54-.02-.74l-11.35-11.21c-.21-.21-.55-.21-.76,0-.02.02-.03.03-.05.05l-19.14,26.18c-.17.24-.14.57.08.76l8.52,7.96c.21.2.53.19.73-.01Zm6.12,9.21c3.11,4.7,5.51,9.74,7.22,15.12.11.32.45.51.77.42l44.16-11.99c.24-.07.38-.31.31-.55,0-.03-.02-.06-.03-.09l-18.26-34.7c-.12-.22-.4-.31-.62-.19-.04.02-.07.04-.1.07l-33.32,30.86c-.29.27-.35.72-.13,1.05Zm-123.91-13.19c-6.02-3.5-11.94-7.16-18.04-10.55-.24-.14-.55-.05-.69.19l-2.96,5.11c-.18.32-.07.72.24.89,0,0,0,0,0,0l17.01,9.34c.32.18.71.11.95-.16l3.6-4.11c.17-.19.15-.49-.04-.66-.02-.02-.05-.04-.08-.06Zm-9.23,13.58l-33.67-18.22c-.18-.09-.4-.02-.5.16-.01.03-.02.05-.03.08l-6.08,25.78c-.06.23.09.46.32.52,0,0,.02,0,.03,0l34.4,5.78c.26.04.52-.12.59-.38,1.29-4.76,2.96-9.27,5-13.54.03-.07,0-.15-.06-.19Zm111.17,5.44c-2.51-1.66-4.28.2-5.03,2.64-1.62,5.25-7.55,19.19-14.22,11.1-2.74-3.31-3.84-7.16-3.29-11.54.35-2.81.25-5.05-2.85-5.6-1.26-.22-2.48.58-2.78,1.82-1.79,7.45-.45,13.77,4,18.98,14.81,17.28,28.7-14.41,24.17-17.4Zm-74.79,17.83c-7.1,8.82-13.46-8.83-14.74-13.14-.1-.31-.29-.58-.55-.77-2.4-1.75-5.56.23-4.93,3.12,1.95,8.93,11.6,26.63,23.16,16.46,5.85-5.15,7.97-11.83,6.35-20.02-.88-4.46-6.62-2.93-6.1,1.09.69,5.34-.37,9.76-3.19,13.26Zm-43.2-3.93c-7.44-1.27-14.86-2.81-22.31-4.22-.31-.06-.62.12-.72.41l-2.37,6.73c-.08.23.04.48.27.56.02,0,.05.01.07.02l24.03,4.53c.26.05.51-.12.56-.38,0-.01,0-.02,0-.03l.97-6.93c.04-.33-.18-.63-.51-.69Zm149.77,11.75c.01.17.16.3.33.29,0,0,0,0,.01,0l31.27-2.42c.16-.01.29-.15.29-.31l-.04-11.24c0-.17-.14-.31-.31-.31-.01,0-.03,0-.04,0l-32.02,4.63c-.16.03-.27.17-.26.33l.77,9.03Zm-78.04,50.79c-2.86-.42-9.89-3.63-9,2.89.08.53.42.98.91,1.2,7.47,3.29,15,3.39,22.59.31,4.38-1.77,2.52-7.46-2.08-5.89-1.61.55-3.3,1-5.07,1.36-.23.04-.46-.11-.5-.34,0-.03,0-.05,0-.08l-.56-23.65c-.01-.3.09-.59.28-.82,5.93-7.27,11.21-15,15.83-23.21.09-.15.04-.34-.12-.43-.04-.03-.09-.04-.14-.04-13.02-.95-26.03-.37-39.02,1.73-.26.05-.43.29-.39.55,0,.01,0,.02,0,.03,2.57,9.85,8.19,17.44,16.88,22.77.29.18.48.5.49.84l.47,22.28c0,.28-.21.5-.48.51-.03,0-.06,0-.09,0Zm-72.05-27.09c-.88-6.13-1.17-12.28-.88-18.47.02-.3-.21-.55-.51-.57-.01,0-.02,0-.03,0H6.67c-.27,0-.49.21-.49.48,0,.04,0,.08.01.12l7.5,30.93c.07.32.39.51.71.44.03,0,.06-.02.09-.03l29.96-11.96c.38-.15.6-.54.55-.94Zm143.21,8.9l31.55,17.36c.3.16.67.05.82-.24.02-.05.04-.09.06-.14l10.06-40.55c.07-.27-.1-.54-.37-.61-.04-.01-.08-.01-.12-.01h-35.01c-.33,0-.61.25-.65.57-1.08,7.95-3.28,15.56-6.6,22.85-.13.28-.01.62.26.77Zm-96.66-7.13c-.26-.77-1.09-1.18-1.86-.92l-19.28,6.49c-.77.26-1.18,1.09-.92,1.86l.2.59c.26.77,1.09,1.18,1.86.92l19.28-6.49c.77-.26,1.18-1.09.92-1.86l-.2-.59Zm80.71,7.43c.26-.78-.15-1.63-.93-1.89l-19.23-6.51c-.78-.26-1.63.15-1.89.93l-.19.55c-.26.78.15,1.63.93,1.89l19.23,6.51c.78.26,1.63-.15,1.89-.93l.19-.55Zm-77.13-.12c-.43-.7-1.34-.93-2.05-.51l-18.15,10.95c-.7.43-.93,1.34-.51,2.05l.32.53c.43.7,1.34.93,2.05.51l18.15-10.95c.7-.43.93-1.34.51-2.05l-.32-.53Zm72.16,12.67c.48-.8.23-1.84-.57-2.32l-17.91-10.85c-.8-.48-1.84-.23-2.32.57l-.13.22c-.48.8-.23,1.84.57,2.32l17.91,10.85c.8.48,1.84.23,2.32-.57l.13-.22Zm-136.77,10.29c.09.15.28.2.44.12l20.26-11.58c.14-.08.2-.26.14-.41l-3.98-9.53c-.07-.17-.27-.24-.43-.17,0,0,0,0,0,0l-22.42,10.55c-.17.08-.24.27-.16.44,0,0,0,.01.01.02l6.15,10.56Zm68.39-14c.53-.79.31-1.86-.48-2.39h0l-.05-.03c-.79-.53-1.86-.31-2.39.48h0l-10.24,15.36c-.53.79-.31,1.86.48,2.39h0l.05.03c.79.53,1.86.31,2.39-.48l10.24-15.36Zm46.92-1.95c-.52-.79-1.59-1-2.37-.47,0,0,0,0,0,0l-.08.06c-.79.52-1,1.59-.47,2.37l10.23,15.34c.52.79,1.59,1,2.37.47,0,0,0,0,0,0l.08-.06c.79-.52,1-1.59.47-2.37l-10.23-15.34Zm72.29,25.88l-36.31-21.72c-.24-.14-.54-.07-.69.16-2.64,4.07-5.58,7.94-8.81,11.63-.16.19-.18.46-.03.66l22,29.12c.12.16.35.2.52.08,0,0,.02-.01.02-.02l23.35-19.26c.17-.14.19-.39.05-.56-.03-.03-.06-.06-.1-.09Zm-184.82,6.43c.07.16.26.24.42.17.02,0,.03-.02.05-.03l25.04-16.47c.15-.1.18-.3.08-.44,0,0,0,0,0,0l-3.9-5.34c-.1-.14-.29-.17-.43-.08l-24.1,15.34c-.13.09-.18.26-.12.4l2.96,6.46Zm52.63,3.29c-6.74-2.85-12.9-6.64-18.48-11.37-.23-.2-.56-.21-.81-.03l-22.05,16.51c-.23.18-.27.5-.09.73.01.01.02.03.03.04l21.21,22.35c.1.1.26.11.37,0,.01-.01.02-.02.03-.04l19.99-27.49c.15-.21.11-.5-.1-.66-.03-.02-.06-.04-.1-.05Zm79.69,17.01c.09.22.34.33.56.24,0,0,.01,0,.02,0l8.57-4c.22-.1.31-.35.21-.57,0-.01-.01-.03-.02-.04l-12.62-21.8c-.12-.2-.38-.27-.59-.15,0,0-.01,0-.02.01l-4.58,3.2c-.16.11-.23.32-.16.5l8.63,22.62Zm-52.65,3.64c.14-.09.32-.06.43.06l6.07,6.54c.13.14.34.15.48.02,0,0,0,0,0,0l5.6-5.37c.09-.09.23-.11.35-.07l30.23,10.19c.18.06.37-.03.43-.21.02-.06.02-.13,0-.2l-8.67-31.15c-.05-.18-.23-.29-.42-.24-.03,0-.06.02-.09.04l-20.71,12.91c-.12.08-.28.07-.39-.02l-6.35-4.98c-.13-.1-.32-.09-.44.02l-5.38,4.97c-.1.09-.24.11-.36.06l-23.17-9.75c-.17-.07-.37,0-.44.18-.01.03-.02.07-.03.11l-2.84,32.76c-.02.19.12.35.31.37.08,0,.15-.01.21-.05l25.16-16.18Z"/>
  <path class="cls-2" d="m132.2,47.91c-8.12-.89-13.42-1.53-20.56-.87-.32.03-.61-.2-.66-.53l-4.58-36.29c-.04-.35.2-.67.55-.71.03,0,.06,0,.09,0h27.23c.28,0,.5.22.5.49,0,.01,0,.02,0,.03l-2.04,37.45c-.01.26-.24.46-.5.44-.01,0-.02,0-.03,0Z"/>
  <path class="cls-2" d="m142.68,50.72c-.33-.11-.51-.46-.41-.79l11.11-36.69c.12-.39.52-.6.9-.49,0,0,.01,0,.02,0l28.72,9.65c.21.07.32.29.26.5-.01.03-.03.07-.05.1l-22.43,35.09c-.17.26-.52.35-.8.2-5.48-2.99-11.25-5.51-17.32-7.58Z"/>
  <path class="cls-2" d="m96.4,49.26l-10.29-28.83c-.08-.24.04-.5.27-.6l8.52-3.54c.24-.1.53,0,.63.25,0,.02.01.04.02.06l8.76,30.89c.07.26-.08.52-.33.59,0,0-.02,0-.03,0l-7,1.47c-.23.05-.47-.08-.55-.3Z"/>
  <path class="cls-3" d="m23.34,26.63c6.83-10.78,19.78-9.77,28.57-2.36.23.2.27.54.09.78l-22.62,30.52c-.13.18-.38.21-.55.08-.02-.02-.05-.04-.07-.06-6.52-7.76-11.41-19.51-5.42-28.96Z"/>
  <path class="cls-2" d="m45.44,51.81c-1.34-.72-2.29-1.29-2.84-1.72-.25-.19-.29-.55-.1-.8,0,0,0,0,0,0l22.74-29.23c.16-.19.44-.23.63-.07.03.02.06.05.08.08l22.94,31.29c.2.27.14.65-.13.85-.04.03-.09.06-.14.08-7.4,2.8-14.21,6.6-20.44,11.41-.24.18-.56.2-.82.06-7.32-4.03-14.63-8.01-21.92-11.95Z"/>
  <path class="cls-3" d="m194.99,33c-1.14-1.01-3.21-2.42-4.48-4.06-.18-.24-.17-.57.02-.8,3.85-4.55,9.58-7.44,15.52-5.62,11.18,3.41,10.26,16.52,6.04,24.72-.1.2-.34.27-.55.17-.03-.01-.05-.03-.07-.05-5.54-4.76-11.03-9.55-16.48-14.36Z"/>
  <path class="cls-2" d="m201.15,50.15c-7.14,7.77-14.5,15.55-21.99,23-.2.2-.52.21-.73.01l-8.52-7.96c-.22-.19-.25-.52-.08-.76l19.14-26.18c.18-.24.52-.29.76-.11.02.01.04.03.05.05l11.35,11.21c.21.2.22.53.02.74Z"/>
  <path class="cls-2" d="m185.41,81.31l33.32-30.86c.19-.17.48-.16.65.02.03.03.05.06.07.1l18.26,34.7c.11.22.03.49-.19.61-.03.01-.06.03-.09.03l-44.16,11.99c-.32.09-.66-.1-.77-.42-1.71-5.38-4.11-10.42-7.22-15.12-.22-.33-.16-.78.13-1.05Z"/>
  <path class="cls-2" d="m43.33,58.62c6.1,3.39,12.02,7.05,18.04,10.55.23.13.3.42.18.64-.02.03-.04.05-.06.08l-3.6,4.11c-.24.27-.63.34-.95.16l-17.01-9.34c-.32-.17-.43-.57-.26-.89,0,0,0,0,0,0l2.96-5.11c.14-.24.45-.33.69-.19Z"/>
  <path class="cls-2" d="m52.14,82.75c.07.04.09.12.06.19-2.04,4.27-3.71,8.78-5,13.54-.07.26-.33.42-.59.38l-34.4-5.78c-.24-.04-.4-.27-.36-.5,0,0,0-.02,0-.03l6.08-25.78c.05-.2.25-.32.45-.27.03,0,.06.02.08.03l33.67,18.22Z"/>
  <path class="cls-3" d="m163.31,88.19c4.53,2.99-9.36,34.68-24.17,17.4-4.45-5.21-5.79-11.53-4-18.98.3-1.24,1.52-2.04,2.78-1.82,3.1.55,3.2,2.79,2.85,5.6-.55,4.38.55,8.23,3.29,11.54,6.67,8.09,12.6-5.85,14.22-11.1.75-2.44,2.52-4.3,5.03-2.64Z"/>
  <path class="cls-3" d="m73.78,92.88c1.28,4.31,7.64,21.96,14.74,13.14,2.82-3.5,3.88-7.92,3.19-13.26-.52-4.02,5.22-5.55,6.1-1.09,1.62,8.19-.5,14.87-6.35,20.02-11.56,10.17-21.21-7.53-23.16-16.46-.63-2.89,2.53-4.87,4.93-3.12.26.19.45.46.55.77Z"/>
  <path class="cls-2" d="m23.01,97.87c7.45,1.41,14.87,2.95,22.31,4.22.33.06.55.36.51.69l-.97,6.93c-.03.26-.27.45-.54.42-.01,0-.02,0-.03,0l-24.03-4.53c-.24-.04-.4-.27-.36-.51,0-.02.01-.05.02-.07l2.37-6.73c.1-.29.41-.47.72-.41Z"/>
  <path class="cls-2" d="m195.09,113.84l-.77-9.03c-.01-.16.1-.3.26-.33l32.02-4.63c.17-.02.33.1.35.27,0,.01,0,.03,0,.04l.04,11.24c0,.16-.13.3-.29.31l-31.27,2.42c-.17.02-.32-.11-.34-.28,0,0,0,0,0-.01Z"/>
  <path class="cls-3" d="m117.62,164.13l-.47-22.28c-.01-.34-.2-.66-.49-.84-8.69-5.33-14.31-12.92-16.88-22.77-.06-.25.09-.51.35-.57.01,0,.02,0,.03,0,12.99-2.1,26-2.68,39.02-1.73.18.01.31.16.3.33,0,.05-.02.1-.04.14-4.62,8.21-9.9,15.94-15.83,23.21-.19.23-.29.52-.28.82l.56,23.65c0,.24.2.43.43.43.03,0,.05,0,.08,0,1.77-.36,3.46-.81,5.07-1.36,4.6-1.57,6.46,4.12,2.08,5.89-7.59,3.08-15.12,2.98-22.59-.31-.49-.22-.83-.67-.91-1.2-.89-6.52,6.14-3.31,9-2.89.27.04.52-.14.56-.41,0-.03,0-.06,0-.09Z"/>
  <path class="cls-2" d="m44.45,138.48l-29.96,11.96c-.3.12-.65-.02-.77-.32-.01-.03-.02-.06-.03-.09l-7.5-30.93c-.07-.26.09-.52.35-.58.04-.01.08-.02.13-.02h36.91c.3,0,.54.24.54.54,0,.01,0,.02,0,.03-.29,6.19,0,12.34.88,18.47.05.4-.17.79-.55.94Z"/>
  <path class="cls-2" d="m188.21,146.44c-.27-.15-.39-.49-.26-.77,3.32-7.29,5.52-14.9,6.6-22.85.04-.32.32-.57.65-.57h35.01c.28,0,.5.22.5.5,0,.04,0,.08-.01.12l-10.06,40.55c-.08.32-.41.52-.73.44-.05-.01-.1-.03-.15-.06l-31.55-17.36Z"/>
  <rect class="cls-3" x="68.98" y="141.54" width="23.28" height="3.56" rx="1.47" ry="1.47" transform="translate(-41.5 33.2) rotate(-18.6)"/>
  <rect class="cls-3" x="159.36" y="131.65" width="3.56" height="23.28" rx="1.49" ry="1.49" transform="translate(-26.25 249.98) rotate(-71.3)"/>
  <rect class="cls-3" x="72.85" y="151.34" width="24.18" height="3.6" rx="1.49" ry="1.49" transform="translate(-66.89 65.89) rotate(-31.1)"/>
  <rect class="cls-3" x="155" y="140.95" width="3.64" height="24.32" rx="1.69" ry="1.69" transform="translate(-55.38 207.93) rotate(-58.8)"/>
  <path class="cls-2" d="m30.52,169.59l-6.15-10.56c-.09-.16-.03-.36.13-.45,0,0,.01,0,.02-.01l22.42-10.55c.17-.08.36,0,.44.16,0,0,0,0,0,0l3.98,9.53c.06.15,0,.33-.14.41l-20.26,11.58c-.16.08-.35.03-.44-.12Z"/>
  <rect class="cls-3" x="81.38" y="160.55" width="21.9" height="3.5" rx="1.72" ry="1.72" transform="translate(-93.92 149.06) rotate(-56.3)"/>
  <rect class="cls-3" x="147.72" y="151.36" width="3.52" height="21.86" rx="1.71" ry="1.71" transform="translate(-64.93 110.21) rotate(-33.7)"/>
  <path class="cls-2" d="m218.12,179.52c.19.11.25.36.14.55-.02.04-.05.07-.09.1l-23.35,19.26c-.15.13-.39.12-.52-.04,0,0-.01-.01-.02-.02l-22-29.12c-.15-.2-.13-.47.03-.66,3.23-3.69,6.17-7.56,8.81-11.63.15-.23.45-.3.69-.16l36.31,21.72Z"/>
  <path class="cls-2" d="m33.3,185.95l-2.96-6.46c-.06-.14-.01-.31.12-.4l24.1-15.34c.14-.09.33-.06.43.08l3.9,5.34c.1.14.07.34-.07.45,0,0,0,0,0,0l-25.04,16.47c-.15.1-.35.06-.44-.09-.01-.02-.02-.03-.03-.05Z"/>
  <path class="cls-2" d="m85.93,189.24c.24.1.35.37.25.61-.01.03-.03.07-.05.1l-19.99,27.49c-.08.12-.25.15-.36.06-.01,0-.03-.02-.04-.03l-21.21-22.35c-.2-.21-.19-.54.02-.74.01-.01.03-.02.04-.03l22.05-16.51c.25-.18.58-.17.81.03,5.58,4.73,11.74,8.52,18.48,11.37Z"/>
  <path class="cls-2" d="m165.62,206.25l-8.63-22.62c-.07-.18,0-.39.16-.5l4.58-3.2c.2-.13.46-.08.6.12,0,0,0,.01.01.02l12.62,21.8c.12.2.05.47-.15.59-.01,0-.03.01-.04.02l-8.57,4c-.22.1-.47,0-.57-.21,0,0,0-.01,0-.02Z"/>
  <path class="cls-3" d="m112.97,209.89l-25.16,16.18c-.16.1-.37.05-.47-.11-.04-.06-.06-.14-.05-.21l2.84-32.76c.01-.19.18-.33.36-.32.04,0,.07.01.11.03l23.17,9.75c.12.05.26.03.36-.06l5.38-4.97c.12-.11.31-.12.44-.02l6.35,4.98c.11.09.27.1.39.02l20.71-12.91c.16-.1.37-.05.47.11.02.03.03.06.04.09l8.67,31.15c.05.18-.06.37-.24.42-.07.02-.14.02-.2,0l-30.23-10.19c-.12-.04-.26-.02-.35.07l-5.6,5.37c-.13.13-.35.13-.48,0,0,0,0,0,0,0l-6.07-6.54c-.11-.12-.29-.15-.43-.06Z"/>
</svg>